<?xml version="1.0" encoding="UTF-8"?>
<svg id="Layer_1" data-name="Layer 1" xmlns="http://www.w3.org/2000/svg" viewBox="0 0 3000 3000">
  <defs>
    <style>
      .cls-1 {
        fill: #fff;
      }

      .cls-2 {
        fill: #9e9e9e;
      }
    </style>
  </defs>
  <path class="cls-1" d="M3000,0v3000H0V0h3000ZM1668.76,597.27c-3.72-5.55-14.06-24.77-19.83-25.34-14.81-1.45-57.61,36.01-67.96,48.04-79.86,92.86-79.8,226.97-70.95,343,.81,10.59,9,48.3,4.96,55.01-65.78,45.06-137.47,83.78-192.22,142.76-76.31,82.21-108.16,189.07-77.83,299.31,40.36,146.67,193.49,225.56,338.96,216.05,2.46,43.17,19.2,98.68-11.97,134.82-24.35,28.24-78.01,33.23-113.01,31.15-7.07-.42-18.81-1.52-24.91-5.09,73.2-11.35,90.77-105.4,26.63-142.63-53.8-31.23-117.27,13.1-116.81,72.63.93,121.3,257.45,145.92,268.14,17.98,3.18-38.03-3.53-76.67-1.71-114.7,111.27-26.26,199.35-121.74,193.76-240.27,4.49,1.61,5.55,6.8,6.03,10.95,2.95,25.4,1.55,51.51,1.96,77.04,6.07.99,3.18-1.56,4.03-4.86,8.98-34.75,5.1-98.84-4.16-134.01-25.74-97.79-105.56-159.27-206.78-161.21-6.87-.13-28.76,2.9-31.81,1.85-7.08-2.44-6.3-34.79-7.3-42.75-2.33-18.48-6.68-36.89-6.02-55.6,82.37-52.59,136.06-128.41,155.48-224.96,20.32-100.97,11.29-212.55-46.69-299.18h.01ZM1450,992.02c-70.67,15.27-138.78,54.04-192.39,102.02-107.85,96.51-165.15,227.68-113.1,370.45,17.31,47.46,46.48,90.42,82.5,125.5,3.37-2.14-.83-4.39-2.04-5.96-37.36-48.88-65.64-114.75-69.06-176.94-8.4-152.81,97.31-294.86,221.47-372.69,23.75-14.89,49.91-26.46,72.61-42.37h.01ZM1165,1084H367c-5.1,0,.23,9.07.55,11.46.59,4.44.24,8.84.72,13.27l1.6,2.4c211.32,3.19,423.49,4.24,635.22,2.97,43.03-.26,86.92-.16,129.82-2.18,10.97-.52,22.13.54,33.09.09-.93-5.42,2.51-26.31-3.01-28.01h.01ZM2648,1084h-968v28c5.06.73,9.71,1.78,14.91,2.1,91.85,5.54,188.08-2.23,279.99-2.19,187.67.07,376.56,2.7,564.01,2.18,13.66-.04,98.06,1.46,102.8-2.36l6.28-27.72h0ZM366,1201v370l3,3h38l3-3v-225c31.26,46.08,55.46,96.96,84.39,144.61,2.85,4.7,34.9,57.4,37.59,55.38l108.02-200v226h44v-370c-2.79-.15-3.81-.59-6.08,1.36-4.89,4.19-19.67,31.55-24.26,39.3-19.89,33.59-39.25,69.63-58,104-23.07,42.28-43.46,86.4-68.66,127.31l-157.03-275.96c-.71-.49-3.79,2.31-3.97,3ZM2632.75,1263.23c-176.99-161.19-425.81,49.79-302.69,233.27,48.3,71.99,147.19,101.66,227.9,70.45,39.17-15.15,68.99-45.2,96.08-75.97l-1.42-4.99-39.71-16.02c-10.51,9.27-18.78,22.2-29.85,32.07-81.66,72.82-214.32,26.79-234.16-79.94-24.76-133.14,133.9-228.09,238.05-142.05,12.21,10.08,23.29,22.98,32.11,36l40.95-24.1c-5.97-11.91-17.62-19.96-27.25-28.73h-.01ZM2013.88,1271.92c.22-.18.32-3.82,1.31-5.62,3.76-6.83,19.64-28.46,15.88-34.35-2.74-4.29-38.41-19.35-45.04-20.99-65.99-16.32-133.53,29.73-117.49,101.49,16.05,71.8,133.61,98.78,143.33,160.67,6.24,39.78-24.98,69.56-64.41,62.41-19.09-3.46-44.79-23.9-47.48-43.54-2.7-2.88-35.98,14.19-37.11,15.96-2.75,4.31,5.53,15.47,8.3,19.87,55.9,88.61,198.83,50.58,186.58-62.58-3.65-33.72-32.68-64.38-57.33-85.14-32.19-27.11-109.25-62.9-80.06-114.75,18-31.97,60.59-21.1,83.79-.46,2.41,2.14,5.13,10.81,9.74,7.02h-.01ZM850,1463v-246l-3-3h-43v247c0,2.65,6.07,26.36,7.39,30.61,37.03,118.73,217.28,110.64,248.92-8.29,1.27-4.79,5.69-24.74,5.69-28.31v-238l-3-3h-43c.42,56.99-.53,114.07-.08,171.08.25,31.84,5.84,60.58-2.87,92.96-22.95,85.22-157.71,81.46-167.04-15.04h-.01ZM2204,1216h-46v355l3,3h40l3-3v-355ZM1868,1588.03l-31.97-16.02c-23.24,86.17-75.1,156.79-148.98,206.05l-51.04,29.93c93.9-23.99,182.02-95.47,220.08-184.89,4.62-10.86,7.68-23.92,11.91-35.07h0ZM1088,1700c-.3-11.75-6.65-26.61-13-36H342v33l3,3h743ZM2670,1664h-742l-10,36h749l3-3v-33ZM1848,1798h818v-16.01c-214.31-1.24-428.75,1.65-643.1.11-48.42-.35-106.17-6.95-154.03-2.22-10.29,1.02-16.21,9.4-20.88,18.12h.01ZM1158,1798l-15-16H358l2,16h798ZM1203.52,1922.52c-131.39,17.67-110.27,220.92,29.27,205.27,132.13-14.82,116.42-224.87-29.27-205.27ZM2070,1925v199h28c-.44-41.82-5.09-87.38-2-129.03.22-2.98-1.56-5.79,2.98-4.96,22.79,24.88,44.6,50.74,67.83,75.22,16.25,17.12,41.58,46.3,59.17,59.78,2.02,1.54,2.52,3.86,6.01,2.99v-202h-26v138l-130.17-141.85c-1.74-1.18-5.41,1.4-5.83,2.85h.01ZM2336.74,2077.32c-37.43-47.29-7.76-127.23,54.19-131.39,24.39-1.64,48.58,6.93,64.08,26.03,4.41-5.17,16.03-19.54,12.04-25.96-1.79-2.88-23.14-14.55-27.66-16.4-78.17-31.93-158.79,31.53-147.27,115.27,9.62,69.92,95.84,103.95,154.35,70.58,5.86-3.34,29.43-21.5,27.42-28.22l-25.63-12.98c-21.17,39.59-86.11,35.16-111.52,3.06h0ZM1596,1926v198c5.88-1.16,25.66,3.01,27.72-3.28l-1.7-122.72,70.98,118.05,5.01-1.43,59.99-114.62v119c0,.55,2.05,4.67,3.37,5.07,7.91-1.12,18.66,2.8,24.63-3.07v-195c-6.5.8-15.46-2.68-19.79,3.21l-68.76,134.22-5.41,2.58c-9.57-16.14-77.1-140.09-85.24-141.58-2.72-.5-7.35,2.53-10.79,1.57h0ZM1842,2124h29l14.79-36.76,88.99-1.36c6.32,9.83,10.03,36.58,22.13,38.22,7.02.95,15.79-.85,23.08-.1l-89.01-200.01-5.35,4.65-83.63,195.37h0ZM380,2044h53c8.38,0,28.04-7.57,35.06-12.94,29.88-22.88,26.49-82.87-9.31-98.8-4.43-1.97-17.73-6.26-21.74-6.26h-84l-1,193,1.88,4.12c2.66,1.85,23.24,2.37,26.13-2.13v-77h-.02ZM672,1926h-126v198h134c-.99-5.44,2.81-21.73-3.28-23.72-18.56-.12-37.24-.81-55.8-.36-14.14.34-33.73,6.43-46.92-.92v-64l3-3h90c5.94,0,.88-18.31,1-22h-94v-60h98v-24ZM819,1926c-25.35-2.45-54.24,1.82-80,0l-3,3v192c3.51,4.86,27,4.01,29.16,1.1l-.89-76.82c1.98-6.05,31.86-3.83,36.71.73l52.01,77.99h31l-55.9-81.12c-.84-4.15.63-2.28,2.67-3.06,24.75-9.54,40.79-19.59,43.19-48.85,3.11-37.91-17.38-61.34-54.96-64.97h.01ZM1067,1926h-125v198h26v-87l3-3h89c-.9-7.15,2.69-16.73-3-22h-86l-3-3v-59l101.92-2.09c-.34-4.81,2.09-20.37-2.92-21.91ZM1469,1926h-81v196c9.55,4.23,18.01-1.25,28,0v-78h31c1.35,0,5.53,3.76,6.7,5.3l48.3,74.7h34l-54-80.95c7.15-4.22,14.53-5.54,21.86-10.18,32.53-20.59,31.13-80.41-3.22-98.52-8.2-4.32-22.46-7.55-31.65-8.35h.01ZM2658,1926h-130v198h128c-.13-5.99,1.81-21.27-5.33-23.67l-91.36,1.35-3.31-2.68v-67h83c5.69-5.27,2.1-14.85,3-22h-86v-62h102v-22h0ZM1104.01,2309.99c.36-2.81-.17-5.35-.95-8.05-4.54-15.7-27.3-67.73-35.52-82.48-1.24-2.22-3.51-6.12-6.51-5.45-5.02,1.11-34.67,84.37-37.02,95.98l11.74-.24,6.06-16.46,40.88-.97c8.66,8.39,4.53,21.68,21.33,17.67h-.01ZM1249.77,2222.23c-45-27-99.9,18.96-74.1,67.1,14.44,26.94,52.03,31.63,74.32,11.65l-5.24-7.08c-81.73,40.74-80.91-99.46.04-59.73l4.99-11.94h-.01ZM1318.01,2309.99l12.11-.87,4.85-15.15,41.71-1.65c7.42,2.54,5.61,28.25,23.27,14.69-6.74-10.44-36.99-91.77-42.98-93-3.97-.82-8.53,12.77-9.95,16.02-11.07,25.36-19.56,53.84-29.02,79.96h.01ZM1472,2310c26.38,3.67,66.58,5.23,79.48-23.52,11.31-25.2,1.55-58.01-25.64-67.33-1.72-.59-12.04-3.16-12.84-3.16h-38l-3,3v91h0ZM1689,2216h-57v93l3,3h56c3.97,0,3.97-12,0-12h-45v-32h40l-3-10h-37v-30h41c.43,0,4.88-2.15,5.13-3.27.39-2.79-.35-7.87-3.13-8.73ZM1770,2216v94h12v-60c5.51-1.06,3.42,1.41,4.85,4.06,9.42,17.45,18.29,35.77,26.15,53.96l5.52-2.55,25.5-57.47c.62-.63,3.98,2.59,3.98,3v58l3.16,2.81,8.84-1.81v-94l-8.66.34-34.35,65.67c-5.96.84-3.75-.01-5.16-2.92-9.91-20.57-19.35-41.31-30.85-61.07l-10.98-2.02ZM1962,2271v36c0,4.09,14,4.09,14,0v-38c0-2.51,21.79-37.2,24.44-43.56,1.33-3.19,2.02-5.95,1.55-9.43-4.8-.34-9.59.28-12.82,4.16-4.39,5.27-17.49,36.56-19.19,37.83-15.31-10.48-17.43-45.44-39.97-41.98l31.99,54.99h0ZM958.01,2261.99c.6-6.03.08-10.44-6.91-10.09H356.91c-7.57-.4-12.56,3-14.91,10.08h616.01ZM2672,2262c-.79-2.03-8.33-10-9-10h-610c-3.77,0-3.77,10,0,10h619Z"/>
  <path d="M1668.76,597.27c57.98,86.63,67,198.21,46.69,299.18-19.43,96.55-73.11,172.37-155.48,224.96-.66,18.7,3.7,37.12,6.02,55.6,1,7.96.22,40.31,7.3,42.75,3.05,1.05,24.94-1.99,31.81-1.85,101.23,1.94,181.05,63.42,206.78,161.21,9.26,35.17,13.14,99.26,4.16,134.01-.85,3.31,2.04,5.86-4.03,4.86-.41-25.53.99-51.64-1.96-77.04-.48-4.15-1.54-9.34-6.03-10.95,5.59,118.53-82.49,214.01-193.76,240.27-1.82,38.03,4.89,76.67,1.71,114.7-10.7,127.94-267.22,103.32-268.14-17.98-.45-59.53,63.01-103.86,116.81-72.63,64.14,37.23,46.57,131.28-26.63,142.63,6.09,3.58,17.84,4.67,24.91,5.09,35,2.08,88.66-2.91,113.01-31.15,31.17-36.15,14.43-91.65,11.97-134.82-145.47,9.51-298.6-69.38-338.96-216.05-30.33-110.24,1.52-217.1,77.83-299.31,54.74-58.98,126.44-97.7,192.22-142.76,4.03-6.72-4.16-44.42-4.96-55.01-8.84-116.03-8.91-250.14,70.95-343,10.34-12.03,53.15-49.49,67.96-48.04,5.77.57,16.12,19.79,19.83,25.34h-.01ZM1627.16,925.16c35.87-45.68,66.77-112.87,62.93-172.24-3.93-60.74-51.23-52.09-85.17-19-59.14,57.67-68.31,160.99-63,239.16.56,8.28,3.24,16.66,4.1,24.92,30.02-19.85,58.86-44.48,81.14-72.84h0ZM1539.76,1227.78c-2.69-19.3-3.34-39.28-5.99-58.55-.59-4.26-4.47-27.06-6.75-27.18-77.23,40.45-156.81,91.57-200.06,169.91-72.71,131.72-13.16,297.28,138.63,329.45,36.68,7.77,78.75,10.09,114.48-.74l-29.07-312.66c-3.42-7.17-21.26.27-27.35,2.64-86.15,33.61-103.63,142.03-36.95,204.64,5.47,5.14,14.42,8.82,19.28,14.69-30.72-6.83-57-31.39-74.43-56.54-75.16-108.43-4.75-227.69,108.2-265.66h.01ZM1683.16,1585.15c54.46-62.2,59.28-146.15,9.64-212.95-25.67-34.55-65.52-57.34-109.51-53.93-6.92,2.29.15,27.99.7,34.74,5.23,64.59,10.43,129.26,14.04,193.96l8.04,84.96c4.49,4.3,40.3-16.22,46.56-20.32,9.86-6.45,22.77-17.6,30.54-26.47h-.01Z"/>
  <path d="M366,1201c.17-.69,3.25-3.48,3.97-3l157.03,275.96c25.2-40.91,45.58-85.02,68.66-127.31,18.75-34.37,38.11-70.41,58-104,4.59-7.75,19.37-35.1,24.26-39.3,2.27-1.95,3.29-1.51,6.08-1.36v370h-44v-226l-108.02,200c-2.69,2.01-34.73-50.68-37.59-55.38-28.93-47.65-53.13-98.53-84.39-144.61v225l-3,3h-38l-3-3v-370h0Z"/>
  <path d="M2632.75,1263.23c9.62,8.77,21.28,16.82,27.25,28.73l-40.95,24.1c-8.82-13.01-19.9-25.91-32.11-36-104.15-86.03-262.81,8.91-238.05,142.05,19.85,106.73,152.51,152.76,234.16,79.94,11.07-9.87,19.34-22.81,29.85-32.07l39.71,16.02,1.42,4.99c-27.09,30.77-56.91,60.82-96.08,75.97-80.7,31.21-179.59,1.53-227.9-70.45-123.12-183.48,125.7-394.47,302.69-233.27h.01Z"/>
  <path d="M850,1463c9.33,96.5,144.1,100.27,167.04,15.04,8.72-32.38,3.13-61.12,2.87-92.96-.45-57.02.51-114.09.08-171.08h43l3,3v238c0,3.57-4.41,23.52-5.69,28.31-31.63,118.94-211.89,127.03-248.92,8.29-1.32-4.25-7.39-27.95-7.39-30.61v-247h43l3,3v246h0Z"/>
  <path d="M2648,1084l-6.28,27.72c-4.74,3.82-89.14,2.32-102.8,2.36-187.45.52-376.35-2.11-564.01-2.18-91.91-.03-188.15,7.73-279.99,2.19-5.2-.31-9.85-1.37-14.91-2.1v-28h968,0Z"/>
  <path d="M2013.88,1271.92c-4.61,3.79-7.33-4.87-9.74-7.02-23.2-20.64-65.79-31.52-83.79.46-29.19,51.85,47.87,87.65,80.06,114.75,24.66,20.76,53.68,51.43,57.33,85.14,12.25,113.15-130.68,151.19-186.58,62.58-2.77-4.4-11.05-15.56-8.3-19.87,1.14-1.78,34.41-18.84,37.11-15.96,2.69,19.63,28.39,40.08,47.48,43.54,39.43,7.15,70.65-22.63,64.41-62.41-9.71-61.89-127.28-88.87-143.33-160.67-16.04-71.76,51.5-117.81,117.49-101.49,6.63,1.64,42.3,16.7,45.04,20.99,3.76,5.88-12.12,27.52-15.88,34.35-.99,1.8-1.09,5.43-1.31,5.62h.01Z"/>
  <polygon points="2670 1664 2670 1697 2667 1700 1918 1700 1928 1664 2670 1664"/>
  <path d="M1088,1700H345l-3-3v-33h733c6.35,9.39,12.7,24.25,13,36Z"/>
  <path d="M1165,1084c5.52,1.7,2.08,22.59,3.01,28.01-10.96.45-22.12-.61-33.09-.09-42.91,2.02-86.79,1.92-129.82,2.18-211.73,1.28-423.9.23-635.22-2.97l-1.6-2.4c-.48-4.43-.13-8.83-.72-13.27-.32-2.39-5.65-11.46-.55-11.46h798-.01Z"/>
  <path class="cls-2" d="M1450,992.02c-22.7,15.91-48.86,27.48-72.61,42.37-124.16,77.83-229.87,219.88-221.47,372.69,3.42,62.19,31.7,128.06,69.06,176.94,1.21,1.58,5.4,3.83,2.04,5.96-36.02-35.08-65.19-78.04-82.5-125.5-52.06-142.77,5.25-273.94,113.1-370.45,53.62-47.98,121.73-86.74,192.39-102.02h-.01Z"/>
  <path d="M1596,1926c3.44.96,8.07-2.07,10.79-1.57,8.14,1.49,75.68,125.44,85.24,141.58l5.41-2.58,68.76-134.22c4.34-5.89,13.29-2.4,19.79-3.21v195c-5.97,5.88-16.71,1.95-24.63,3.07-1.32-.4-3.37-4.52-3.37-5.07v-119l-59.99,114.62-5.01,1.43-70.98-118.05,1.7,122.72c-2.06,6.29-21.84,2.12-27.72,3.28v-198h0Z"/>
  <polygon points="2204 1216 2204 1571 2201 1574 2161 1574 2158 1571 2158 1216 2204 1216"/>
  <path d="M1203.52,1922.52c145.69-19.6,161.4,190.45,29.27,205.27-139.54,15.65-160.66-187.6-29.27-205.27ZM1207.57,1946.56c-82.97,10.65-85.88,142.47-.09,154.96,113.48,16.53,117.93-170.08.09-154.96Z"/>
  <path d="M1469,1926c9.19.81,23.44,4.03,31.65,8.35,34.35,18.1,35.74,77.93,3.22,98.52-7.34,4.64-14.71,5.96-21.86,10.18l54,80.95h-34l-48.3-74.7c-1.17-1.54-5.36-5.3-6.7-5.3h-31v78c-9.99-1.25-18.45,4.23-28,0v-196h81-.01ZM1419,1950l-3,3v66l3,3h48c1.5,0,16.72-5.87,18.81-7.19,15.67-9.86,16.92-43.42,3.99-55.61-4.48-4.22-19.12-9.2-24.8-9.2h-46Z"/>
  <path d="M2070,1925c.42-1.45,4.09-4.03,5.83-2.85l130.17,141.85v-138h26v202c-3.49.87-4-1.44-6.01-2.99-17.6-13.48-42.92-42.66-59.17-59.78-23.23-24.48-45.04-50.34-67.83-75.22-4.54-.83-2.76,1.97-2.98,4.96-3.09,41.65,1.56,87.21,2,129.03h-28v-199h-.01Z"/>
  <path d="M819,1926c37.59,3.63,58.08,27.06,54.96,64.97-2.4,29.26-18.45,39.31-43.19,48.85-2.04.79-3.51-1.08-2.67,3.06l55.9,81.12h-31l-52.01-77.99c-4.85-4.57-34.73-6.78-36.71-.73l.89,76.82c-2.16,2.91-25.65,3.77-29.16-1.1v-192l3-3c25.76,1.82,54.65-2.45,80,0h-.01ZM815,1950c-16.01-1.73-34.68,1.27-51,0v69c1.76,2.85,3.99,2.76,6.9,3.1,12.63,1.48,49.52-1.97,60.51-7.69,16.8-8.75,18.72-37.22,9.22-51.86-4.63-7.13-17.56-11.68-25.63-12.55Z"/>
  <polygon class="cls-2" points="1158 1798 360 1798 358 1782 1143 1782 1158 1798"/>
  <path d="M672,1926v24h-98v60h94c-.12,3.69,4.94,22-1,22h-90l-3,3v64c13.19,7.35,32.78,1.26,46.92.92,18.56-.44,37.25.24,55.8.36,6.09,1.99,2.28,18.29,3.28,23.72h-134v-198h126Z"/>
  <path d="M2658,1926v22h-102v62h86c-.9,7.15,2.69,16.73-3,22h-83v67l3.31,2.68,91.36-1.35c7.14,2.4,5.2,17.68,5.33,23.67h-128v-198h130,0Z"/>
  <path d="M2336.74,2077.32c25.41,32.1,90.35,36.53,111.52-3.06l25.63,12.98c2.01,6.72-21.57,24.88-27.42,28.22-58.51,33.37-144.74-.66-154.35-70.58-11.52-83.74,69.1-147.21,147.27-115.27,4.52,1.85,25.87,13.51,27.66,16.4,3.98,6.42-7.63,20.79-12.04,25.96-15.5-19.1-39.68-27.67-64.08-26.03-61.95,4.16-91.62,84.1-54.19,131.39h0Z"/>
  <path d="M380,2044v77c-2.89,4.5-23.46,3.98-26.13,2.13l-1.88-4.12,1-193h84c4.02,0,17.32,4.29,21.74,6.26,35.8,15.93,39.19,75.92,9.31,98.8-7.02,5.37-26.67,12.94-35.06,12.94h-53,.02ZM380,2022h51c7.31,0,21.2-10.12,24.67-17.33,9.3-19.36,6.18-45.59-16.54-52.8-2.97-.94-15.99-3.87-18.13-3.87h-41v74Z"/>
  <path d="M1842,2124l83.63-195.37,5.35-4.65,89.01,200.01c-7.29-.75-16.07,1.05-23.08.1-12.1-1.64-15.81-28.39-22.13-38.22l-88.99,1.36-14.79,36.76h-29ZM1899,2064h65l-33.02-82.02c-3.4-.43-3.97,2.57-5.1,4.9-10.91,22.37-16.51,50.84-29.02,73.04l2.14,4.08Z"/>
  <path d="M1067,1926c5.01,1.54,2.58,17.11,2.92,21.91l-101.92,2.09v59l3,3h86c5.69,5.27,2.1,14.85,3,22h-89l-3,3v87h-26v-198h125Z"/>
  <path class="cls-2" d="M1868,1588.03c-4.23,11.15-7.28,24.2-11.91,35.07-38.07,89.41-126.18,160.9-220.08,184.89l51.04-29.93c73.88-49.26,125.74-119.88,148.98-206.05l31.97,16.02h0Z"/>
  <path d="M958.01,2261.99H342c2.35-7.09,7.33-10.49,14.91-10.08h594.19c6.99-.35,7.51,4.05,6.91,10.08h0Z"/>
  <path d="M2672,2262h-619c-3.77,0-3.77-10,0-10h610c.67,0,8.21,7.97,9,10Z"/>
  <path d="M1770,2216l10.98,2.02c11.5,19.76,20.94,40.5,30.85,61.07,1.4,2.91-.8,3.77,5.16,2.92l34.35-65.67,8.66-.34v94l-8.84,1.81-3.16-2.81v-58c0-.41-3.36-3.63-3.98-3l-25.5,57.47-5.52,2.55c-7.86-18.19-16.73-36.51-26.15-53.96-1.43-2.65.65-5.12-4.85-4.06v60h-12v-94Z"/>
  <path d="M1472,2310v-91l3-3h38c.8,0,11.13,2.57,12.84,3.16,27.19,9.31,36.95,42.13,25.64,67.33-12.9,28.75-53.1,27.19-79.48,23.52h0ZM1486,2228v72c34.57,5.75,66.57-13.81,52.81-51.8-7.79-21.5-33.44-21.19-52.81-20.2Z"/>
  <path d="M1689,2216c2.78.86,3.52,5.94,3.13,8.73-.25,1.12-4.69,3.27-5.13,3.27h-41v30h37l3,10h-40v32h45c3.97,0,3.97,12,0,12h-56l-3-3v-93h57Z"/>
  <path d="M1318.01,2309.99c9.46-26.12,17.95-54.6,29.02-79.96,1.42-3.24,5.98-16.84,9.95-16.02,5.99,1.24,36.24,82.56,42.98,93-17.66,13.56-15.85-12.15-23.27-14.69l-41.71,1.65-4.85,15.15-12.11.87h-.01ZM1372,2282l-14.02-42c-1.85-1.43-10.46,21.1-11.33,23.64-1.95,5.72-3.99,12.35-4.65,18.35h30Z"/>
  <path d="M1104.01,2309.99c-16.79,4.01-12.66-9.28-21.33-17.67l-40.88.97-6.06,16.46-11.74.24c2.36-11.62,32-94.88,37.02-95.98,3.01-.66,5.28,3.23,6.51,5.45,8.22,14.75,30.98,66.79,35.52,82.48.78,2.7,1.31,5.23.95,8.05h.01ZM1048,2282h30c-1.81-11.1-6.66-21.76-11.08-31.96-1.12-2.58-2.24-9.09-5.9-8.06-2.03.58-14.87,38.18-13.02,40.01h0Z"/>
  <path d="M1249.77,2222.23l-4.99,11.94c-80.95-39.72-81.77,100.48-.04,59.73l5.24,7.08c-22.29,19.98-59.88,15.3-74.32-11.65-25.8-48.14,29.1-94.1,74.1-67.1h.01Z"/>
  <path d="M1962,2271l-31.99-54.99c22.54-3.46,24.66,31.5,39.97,41.98,1.7-1.27,14.8-32.56,19.19-37.83,3.24-3.88,8.03-4.49,12.82-4.16.47,3.48-.22,6.24-1.55,9.43-2.65,6.36-24.44,41.04-24.44,43.56v38c0,4.09-14,4.09-14,0v-36h0Z"/>
  <path class="cls-1" d="M1539.76,1227.78c-112.95,37.97-183.36,157.23-108.2,265.66,17.43,25.15,43.72,49.71,74.43,56.54-4.86-5.87-13.81-9.55-19.28-14.69-66.68-62.61-49.21-171.03,36.95-204.64,6.08-2.37,23.93-9.81,27.35-2.64l29.07,312.66c-35.73,10.83-77.8,8.51-114.48.74-151.79-32.17-211.35-197.74-138.63-329.45,43.25-78.34,122.83-129.46,200.06-169.91,2.28.12,6.17,22.92,6.75,27.18,2.66,19.27,3.3,39.25,5.99,58.55h-.01Z"/>
  <path class="cls-1" d="M1683.16,1585.15c-7.76,8.87-20.68,20.01-30.54,26.47-6.26,4.1-42.07,24.62-46.56,20.32l-8.04-84.96c-3.61-64.7-8.81-129.37-14.04-193.96-.55-6.75-7.61-32.45-.7-34.74,43.99-3.42,83.84,19.38,109.51,53.93,49.64,66.8,44.82,150.75-9.64,212.95h.01Z"/>
  <path class="cls-1" d="M1627.16,925.16c-22.28,28.36-51.11,52.99-81.14,72.84-.86-8.26-3.54-16.64-4.1-24.92-5.31-78.17,3.86-181.48,63-239.16,33.93-33.09,81.24-41.75,85.17,19,3.84,59.37-27.05,126.57-62.93,172.24h0Z"/>
  <path class="cls-1" d="M1207.57,1946.56c117.84-15.13,113.39,171.48-.09,154.96-85.79-12.49-82.89-144.31.09-154.96Z"/>
  <path class="cls-1" d="M1419,1950h46c5.68,0,20.33,4.97,24.8,9.2,12.92,12.19,11.67,45.76-3.99,55.61-2.1,1.32-17.31,7.19-18.81,7.19h-48l-3-3v-66l3-3h0Z"/>
  <path class="cls-1" d="M815,1950c8.08.87,21,5.42,25.63,12.55,9.5,14.64,7.58,43.1-9.22,51.86-10.99,5.72-47.88,9.17-60.51,7.69-2.91-.34-5.14-.25-6.9-3.1v-69c16.32,1.27,34.99-1.73,51,0Z"/>
  <path class="cls-1" d="M380,2022v-74h41c2.14,0,15.16,2.93,18.13,3.87,22.72,7.2,25.84,33.44,16.54,52.8-3.47,7.21-17.35,17.33-24.67,17.33h-51Z"/>
  <path class="cls-1" d="M1899,2064l-2.14-4.08c12.51-22.21,18.11-50.68,29.02-73.04,1.14-2.33,1.7-5.33,5.1-4.9l33.02,82.02h-65Z"/>
  <path class="cls-1" d="M1486,2228c19.37-.99,45.02-1.3,52.81,20.2,13.76,37.99-18.24,57.55-52.81,51.8v-72Z"/>
  <path class="cls-1" d="M1372,2282h-30c.65-6,2.69-12.63,4.65-18.35.87-2.54,9.48-25.07,11.33-23.64l14.02,42h0Z"/>
  <path class="cls-1" d="M1048,2282c-1.85-1.84,10.99-39.44,13.02-40.01,3.66-1.04,4.78,5.48,5.9,8.06,4.42,10.2,9.27,20.86,11.08,31.96h-30Z"/>
  <polygon class="cls-2" points="1845.01 1796.09 2666.95 1796.09 2669.01 1780.09 1860.46 1780.09 1845.01 1796.09"/>
</svg>