<?xml version="1.0" encoding="UTF-8"?>
<svg id="Layer_1" xmlns="http://www.w3.org/2000/svg" version="1.1" viewBox="0 0 3000 3000">
  <!-- Generator: Adobe Illustrator 29.4.0, SVG Export Plug-In . SVG Version: 2.1.0 Build 152)  -->
  <defs>
    <style>
      .st0 {
        fill: #fff;
      }

      .st1 {
        fill: #a50000;
      }
    </style>
  </defs>
  <path d="M1668.76,597.27c57.98,86.63,67,198.21,46.69,299.18-19.43,96.55-73.11,172.37-155.48,224.96-.66,18.7,3.7,37.12,6.02,55.6,1,7.96.22,40.31,7.3,42.75,3.05,1.05,24.94-1.99,31.81-1.85,101.23,1.94,181.05,63.42,206.78,161.21,9.26,35.17,13.14,99.26,4.16,134.01-.85,3.31,2.04,5.86-4.03,4.86-.41-25.53.99-51.64-1.96-77.04-.48-4.15-1.54-9.34-6.03-10.95,5.59,118.53-82.49,214.01-193.76,240.27-1.82,38.03,4.89,76.67,1.71,114.7-10.7,127.94-267.22,103.32-268.14-17.98-.45-59.53,63.01-103.86,116.81-72.63,64.14,37.23,46.57,131.28-26.63,142.63,6.09,3.58,17.84,4.67,24.91,5.09,35,2.08,88.66-2.91,113.01-31.15,31.17-36.15,14.43-91.65,11.97-134.82-145.47,9.51-298.6-69.38-338.96-216.05-30.33-110.24,1.52-217.1,77.83-299.31,54.74-58.98,126.44-97.7,192.22-142.76,4.03-6.72-4.16-44.42-4.96-55.01-8.84-116.03-8.91-250.14,70.95-343,10.34-12.03,53.15-49.49,67.96-48.04,5.77.57,16.12,19.79,19.83,25.34h-.01ZM1627.16,925.16c35.87-45.68,66.77-112.87,62.93-172.24-3.93-60.74-51.23-52.09-85.17-19-59.14,57.67-68.31,160.99-63,239.16.56,8.28,3.24,16.66,4.1,24.92,30.02-19.85,58.86-44.48,81.14-72.84h0ZM1539.76,1227.78c-2.69-19.3-3.34-39.28-5.99-58.55-.59-4.26-4.47-27.06-6.75-27.18-77.23,40.45-156.81,91.57-200.06,169.91-72.71,131.72-13.16,297.28,138.63,329.45,36.68,7.77,78.75,10.09,114.48-.74l-29.07-312.66c-3.42-7.17-21.26.27-27.35,2.64-86.15,33.61-103.63,142.03-36.95,204.64,5.47,5.14,14.42,8.82,19.28,14.69-30.72-6.83-57-31.39-74.43-56.54-75.16-108.43-4.75-227.69,108.2-265.66h.01ZM1683.16,1585.15c54.46-62.2,59.28-146.15,9.64-212.95-25.67-34.55-65.52-57.34-109.51-53.93-6.92,2.29.15,27.99.7,34.74,5.23,64.59,10.43,129.26,14.04,193.96l8.04,84.96c4.49,4.3,40.3-16.22,46.56-20.32,9.86-6.45,22.77-17.6,30.54-26.47h-.01Z"/>
  <path d="M366,1201c.17-.69,3.25-3.48,3.97-3l157.03,275.96c25.2-40.91,45.58-85.02,68.66-127.31,18.75-34.37,38.11-70.41,58-104,4.59-7.75,19.37-35.1,24.26-39.3,2.27-1.95,3.29-1.51,6.08-1.36v370h-44v-226l-108.02,200c-2.69,2.01-34.73-50.68-37.59-55.38-28.93-47.65-53.13-98.53-84.39-144.61v225l-3,3h-38l-3-3v-370h0Z"/>
  <path d="M2632.75,1263.23c9.62,8.77,21.28,16.82,27.25,28.73l-40.95,24.1c-8.82-13.01-19.9-25.91-32.11-36-104.15-86.03-262.81,8.91-238.05,142.05,19.85,106.73,152.51,152.76,234.16,79.94,11.07-9.87,19.34-22.81,29.85-32.07l39.71,16.02,1.42,4.99c-27.09,30.77-56.91,60.82-96.08,75.97-80.7,31.21-179.59,1.53-227.9-70.45-123.12-183.48,125.7-394.47,302.69-233.27h.01Z"/>
  <path d="M850,1463c9.33,96.5,144.1,100.27,167.04,15.04,8.72-32.38,3.13-61.12,2.87-92.96-.45-57.02.51-114.09.08-171.08h43l3,3v238c0,3.57-4.41,23.52-5.69,28.31-31.63,118.94-211.89,127.03-248.92,8.29-1.32-4.25-7.39-27.95-7.39-30.61v-247h43l3,3v246h0Z"/>
  <path d="M2648,1084l-6.28,27.72c-4.74,3.82-89.14,2.32-102.8,2.36-187.45.52-376.35-2.11-564.01-2.18-91.91-.03-188.15,7.73-279.99,2.19-5.2-.31-9.85-1.37-14.91-2.1v-28h968,0Z"/>
  <path d="M2013.88,1271.92c-4.61,3.79-7.33-4.87-9.74-7.02-23.2-20.64-65.79-31.52-83.79.46-29.19,51.85,47.87,87.65,80.06,114.75,24.66,20.76,53.68,51.43,57.33,85.14,12.25,113.15-130.68,151.19-186.58,62.58-2.77-4.4-11.05-15.56-8.3-19.87,1.14-1.78,34.41-18.84,37.11-15.96,2.69,19.63,28.39,40.08,47.48,43.54,39.43,7.15,70.65-22.63,64.41-62.41-9.71-61.89-127.28-88.87-143.33-160.67-16.04-71.76,51.5-117.81,117.49-101.49,6.63,1.64,42.3,16.7,45.04,20.99,3.76,5.88-12.12,27.52-15.88,34.35-.99,1.8-1.09,5.43-1.31,5.62h.01Z"/>
  <polygon points="2670 1664 2670 1697 2667 1700 1918 1700 1928 1664 2670 1664"/>
  <path d="M1088,1700H345l-3-3v-33h733c6.35,9.39,12.7,24.25,13,36Z"/>
  <path d="M1165,1084c5.52,1.7,2.08,22.59,3.01,28.01-10.96.45-22.12-.61-33.09-.09-42.91,2.02-86.79,1.92-129.82,2.18-211.73,1.28-423.9.23-635.22-2.97l-1.6-2.4c-.48-4.43-.13-8.83-.72-13.27-.32-2.39-5.65-11.46-.55-11.46h798-.01Z"/>
  <path class="st1" d="M1450,992.02c-22.7,15.91-48.86,27.48-72.61,42.37-124.16,77.83-229.87,219.88-221.47,372.69,3.42,62.19,31.7,128.06,69.06,176.94,1.21,1.58,5.4,3.83,2.04,5.96-36.02-35.08-65.19-78.04-82.5-125.5-52.06-142.77,5.25-273.94,113.1-370.45,53.62-47.98,121.73-86.74,192.39-102.02h-.01Z"/>
  <path d="M1596,1926c3.44.96,8.07-2.07,10.79-1.57,8.14,1.49,75.68,125.44,85.24,141.58l5.41-2.58,68.76-134.22c4.34-5.89,13.29-2.4,19.79-3.21v195c-5.97,5.88-16.71,1.95-24.63,3.07-1.32-.4-3.37-4.52-3.37-5.07v-119l-59.99,114.62-5.01,1.43-70.98-118.05,1.7,122.72c-2.06,6.29-21.84,2.12-27.72,3.28v-198h0Z"/>
  <polygon points="2204 1216 2204 1571 2201 1574 2161 1574 2158 1571 2158 1216 2204 1216"/>
  <path d="M1203.52,1922.52c145.69-19.6,161.4,190.45,29.27,205.27-139.54,15.65-160.66-187.6-29.27-205.27ZM1207.57,1946.56c-82.97,10.65-85.88,142.47-.09,154.96,113.48,16.53,117.93-170.08.09-154.96Z"/>
  <path d="M1469,1926c9.19.81,23.44,4.03,31.65,8.35,34.35,18.1,35.74,77.93,3.22,98.52-7.34,4.64-14.71,5.96-21.86,10.18l54,80.95h-34l-48.3-74.7c-1.17-1.54-5.36-5.3-6.7-5.3h-31v78c-9.99-1.25-18.45,4.23-28,0v-196h81-.01ZM1419,1950l-3,3v66l3,3h48c1.5,0,16.72-5.87,18.81-7.19,15.67-9.86,16.92-43.42,3.99-55.61-4.48-4.22-19.12-9.2-24.8-9.2h-46Z"/>
  <path d="M2070,1925c.42-1.45,4.09-4.03,5.83-2.85l130.17,141.85v-138h26v202c-3.49.87-4-1.44-6.01-2.99-17.6-13.48-42.92-42.66-59.17-59.78-23.23-24.48-45.04-50.34-67.83-75.22-4.54-.83-2.76,1.97-2.98,4.96-3.09,41.65,1.56,87.21,2,129.03h-28v-199h-.01Z"/>
  <path d="M819,1926c37.59,3.63,58.08,27.06,54.96,64.97-2.4,29.26-18.45,39.31-43.19,48.85-2.04.79-3.51-1.08-2.67,3.06l55.9,81.12h-31l-52.01-77.99c-4.85-4.57-34.73-6.78-36.71-.73l.89,76.82c-2.16,2.91-25.65,3.77-29.16-1.1v-192l3-3c25.76,1.82,54.65-2.45,80,0h-.01ZM815,1950c-16.01-1.73-34.68,1.27-51,0v69c1.76,2.85,3.99,2.76,6.9,3.1,12.63,1.48,49.52-1.97,60.51-7.69,16.8-8.75,18.72-37.22,9.22-51.86-4.63-7.13-17.56-11.68-25.63-12.55Z"/>
  <polygon class="st1" points="1158 1798 360 1798 358 1782 1143 1782 1158 1798"/>
  <path d="M672,1926v24h-98v60h94c-.12,3.69,4.94,22-1,22h-90l-3,3v64c13.19,7.35,32.78,1.26,46.92.92,18.56-.44,37.25.24,55.8.36,6.09,1.99,2.28,18.29,3.28,23.72h-134v-198h126Z"/>
  <path d="M2658,1926v22h-102v62h86c-.9,7.15,2.69,16.73-3,22h-83v67l3.31,2.68,91.36-1.35c7.14,2.4,5.2,17.68,5.33,23.67h-128v-198h130,0Z"/>
  <path d="M2336.74,2077.32c25.41,32.1,90.35,36.53,111.52-3.06l25.63,12.98c2.01,6.72-21.57,24.88-27.42,28.22-58.51,33.37-144.74-.66-154.35-70.58-11.52-83.74,69.1-147.21,147.27-115.27,4.52,1.85,25.87,13.51,27.66,16.4,3.98,6.42-7.63,20.79-12.04,25.96-15.5-19.1-39.68-27.67-64.08-26.03-61.95,4.16-91.62,84.1-54.19,131.39h0Z"/>
  <path d="M380,2044v77c-2.89,4.5-23.46,3.98-26.13,2.13l-1.88-4.12,1-193h84c4.02,0,17.32,4.29,21.74,6.26,35.8,15.93,39.19,75.92,9.31,98.8-7.02,5.37-26.67,12.94-35.06,12.94h-53,.02ZM380,2022h51c7.31,0,21.2-10.12,24.67-17.33,9.3-19.36,6.18-45.59-16.54-52.8-2.97-.94-15.99-3.87-18.13-3.87h-41v74Z"/>
  <path d="M1842,2124l83.63-195.37,5.35-4.65,89.01,200.01c-7.29-.75-16.07,1.05-23.08.1-12.1-1.64-15.81-28.39-22.13-38.22l-88.99,1.36-14.79,36.76h-29ZM1899,2064h65l-33.02-82.02c-3.4-.43-3.97,2.57-5.1,4.9-10.91,22.37-16.51,50.84-29.02,73.04l2.14,4.08Z"/>
  <path d="M1067,1926c5.01,1.54,2.58,17.11,2.92,21.91l-101.92,2.09v59l3,3h86c5.69,5.27,2.1,14.85,3,22h-89l-3,3v87h-26v-198h125Z"/>
  <path class="st1" d="M1868,1588.03c-4.23,11.15-7.28,24.2-11.91,35.07-38.07,89.41-126.18,160.9-220.08,184.89l51.04-29.93c73.88-49.26,125.74-119.88,148.98-206.05l31.97,16.02h0Z"/>
  <path d="M958.01,2261.99H342c2.35-7.09,7.33-10.49,14.91-10.08h594.19c6.99-.35,7.51,4.05,6.91,10.08h0Z"/>
  <path d="M2672,2262h-619c-3.77,0-3.77-10,0-10h610c.67,0,8.21,7.97,9,10Z"/>
  <path d="M1770,2216l10.98,2.02c11.5,19.76,20.94,40.5,30.85,61.07,1.4,2.91-.8,3.77,5.16,2.92l34.35-65.67,8.66-.34v94l-8.84,1.81-3.16-2.81v-58c0-.41-3.36-3.63-3.98-3l-25.5,57.47-5.52,2.55c-7.86-18.19-16.73-36.51-26.15-53.96-1.43-2.65.65-5.12-4.85-4.06v60h-12v-94Z"/>
  <path d="M1472,2310v-91l3-3h38c.8,0,11.13,2.57,12.84,3.16,27.19,9.31,36.95,42.13,25.64,67.33-12.9,28.75-53.1,27.19-79.48,23.52h0ZM1486,2228v72c34.57,5.75,66.57-13.81,52.81-51.8-7.79-21.5-33.44-21.19-52.81-20.2Z"/>
  <path d="M1689,2216c2.78.86,3.52,5.94,3.13,8.73-.25,1.12-4.69,3.27-5.13,3.27h-41v30h37l3,10h-40v32h45c3.97,0,3.97,12,0,12h-56l-3-3v-93h57Z"/>
  <path d="M1318.01,2309.99c9.46-26.12,17.95-54.6,29.02-79.96,1.42-3.24,5.98-16.84,9.95-16.02,5.99,1.24,36.24,82.56,42.98,93-17.66,13.56-15.85-12.15-23.27-14.69l-41.71,1.65-4.85,15.15-12.11.87h-.01ZM1372,2282l-14.02-42c-1.85-1.43-10.46,21.1-11.33,23.64-1.95,5.72-3.99,12.35-4.65,18.35h30Z"/>
  <path d="M1104.01,2309.99c-16.79,4.01-12.66-9.28-21.33-17.67l-40.88.97-6.06,16.46-11.74.24c2.36-11.62,32-94.88,37.02-95.98,3.01-.66,5.28,3.23,6.51,5.45,8.22,14.75,30.98,66.79,35.52,82.48.78,2.7,1.31,5.23.95,8.05h.01ZM1048,2282h30c-1.81-11.1-6.66-21.76-11.08-31.96-1.12-2.58-2.24-9.09-5.9-8.06-2.03.58-14.87,38.18-13.02,40.01h0Z"/>
  <path d="M1249.77,2222.23l-4.99,11.94c-80.95-39.72-81.77,100.48-.04,59.73l5.24,7.08c-22.29,19.98-59.88,15.3-74.32-11.65-25.8-48.14,29.1-94.1,74.1-67.1h.01Z"/>
  <path d="M1962,2271l-31.99-54.99c22.54-3.46,24.66,31.5,39.97,41.98,1.7-1.27,14.8-32.56,19.19-37.83,3.24-3.88,8.03-4.49,12.82-4.16.47,3.48-.22,6.24-1.55,9.43-2.65,6.36-24.44,41.04-24.44,43.56v38c0,4.09-14,4.09-14,0v-36h0Z"/>
  <path class="st0" d="M1486,2228c19.37-.99,45.02-1.3,52.81,20.2,13.76,37.99-18.24,57.55-52.81,51.8v-72Z"/>
  <polygon class="st1" points="1845.01 1796.09 2666.95 1796.09 2669.01 1780.09 1860.46 1780.09 1845.01 1796.09"/>
</svg>